<svg xmlns="http://www.w3.org/2000/svg" xmlns:xlink="http://www.w3.org/1999/xlink" width="50" zoomAndPan="magnify" viewBox="0 0 37.5 37.499999" height="50" preserveAspectRatio="xMidYMid meet" version="1.2"><defs><clipPath id="337b6c7bd9"><path d="M 0 0.402344 L 37 0.402344 L 37 36.671875 L 0 36.671875 Z M 0 0.402344 "/></clipPath></defs><g id="7f44b3ced3"><g clip-rule="nonzero" clip-path="url(#337b6c7bd9)"><path style=" stroke:none;fill-rule:evenodd;fill:#ffffff;fill-opacity:1;" d="M 18.449219 0.402344 C 8.261719 0.402344 0.0273438 8.714844 0.0273438 18.996094 C 0.0273438 27.214844 5.304688 34.171875 12.625 36.636719 C 13.539062 36.820312 13.875 36.234375 13.875 35.742188 C 13.875 35.3125 13.84375 33.835938 13.84375 32.292969 C 8.71875 33.402344 7.652344 30.078125 7.652344 30.078125 C 6.828125 27.921875 5.609375 27.371094 5.609375 27.371094 C 3.929688 26.230469 5.730469 26.230469 5.730469 26.230469 C 7.589844 26.355469 8.566406 28.140625 8.566406 28.140625 C 10.214844 30.972656 12.867188 30.171875 13.933594 29.679688 C 14.085938 28.476562 14.574219 27.648438 15.09375 27.183594 C 11.007812 26.753906 6.707031 25.152344 6.707031 18.011719 C 6.707031 15.980469 7.4375 14.316406 8.597656 13.023438 C 8.414062 12.5625 7.773438 10.652344 8.78125 8.097656 C 8.78125 8.097656 10.335938 7.605469 13.84375 10.007812 C 15.351562 9.597656 16.886719 9.394531 18.449219 9.390625 C 20.003906 9.390625 21.589844 9.609375 23.054688 10.007812 C 26.558594 7.605469 28.117188 8.097656 28.117188 8.097656 C 29.121094 10.652344 28.480469 12.5625 28.296875 13.023438 C 29.488281 14.316406 30.191406 15.980469 30.191406 18.011719 C 30.191406 25.152344 25.890625 26.722656 21.773438 27.183594 C 22.445312 27.769531 23.023438 28.878906 23.023438 30.632812 C 23.023438 33.125 22.992188 35.125 22.992188 35.742188 C 22.992188 36.234375 23.328125 36.820312 24.242188 36.636719 C 31.5625 34.171875 36.839844 27.214844 36.839844 18.996094 C 36.867188 8.714844 28.605469 0.402344 18.449219 0.402344 Z M 18.449219 0.402344 "/></g></g></svg>