<svg xmlns="http://www.w3.org/2000/svg" xmlns:xlink="http://www.w3.org/1999/xlink" width="300" zoomAndPan="magnify" viewBox="0 0 224.87999 74.999997" height="100" preserveAspectRatio="xMidYMid meet" version="1.2"><defs><clipPath id="346d75c323"><path d="M 12.894531 11.828125 L 211 11.828125 L 211 62.800781 L 12.894531 62.800781 Z M 12.894531 11.828125 "/></clipPath></defs><g id="96e2dd9b55"><g clip-rule="nonzero" clip-path="url(#346d75c323)"><path style=" stroke:none;fill-rule:evenodd;fill:#ffffff;fill-opacity:1;" d="M 12.675781 62.777344 L -16.835938 11.871094 L -46.347656 62.777344 Z M 42.445312 60.460938 L 67.109375 14.183594 L 56.441406 14.183594 L 39.425781 47.789062 L 22.414062 14.183594 L 11.746094 14.183594 L 36.410156 60.460938 Z M 210.523438 14.183594 L 210.523438 60.460938 L 201.695312 60.460938 L 201.695312 14.183594 Z M 161.363281 43.1875 C 161.363281 39.582031 162.121094 36.410156 163.640625 33.671875 C 165.160156 30.933594 167.273438 28.828125 169.988281 27.347656 C 172.703125 25.871094 175.875 25.132812 179.511719 25.132812 C 182.730469 25.132812 185.628906 25.828125 188.203125 27.21875 C 190.78125 28.609375 192.828125 30.671875 194.34375 33.410156 C 195.863281 36.148438 196.644531 39.492188 196.691406 43.449219 L 196.691406 45.46875 L 170.679688 45.46875 C 170.863281 48.335938 171.714844 50.59375 173.230469 52.246094 C 174.796875 53.855469 176.890625 54.65625 179.511719 54.65625 C 181.164062 54.65625 182.683594 54.222656 184.0625 53.355469 C 185.445312 52.484375 186.480469 51.3125 187.167969 49.835938 L 196.207031 50.488281 C 195.101562 53.746094 193.035156 56.351562 190 58.308594 C 186.960938 60.261719 183.464844 61.242188 179.511719 61.242188 C 175.875 61.242188 172.703125 60.503906 169.988281 59.023438 C 167.273438 57.546875 165.160156 55.441406 163.640625 52.703125 C 162.121094 49.964844 161.363281 46.792969 161.363281 43.1875 Z M 187.582031 39.929688 C 187.261719 37.105469 186.363281 35.039062 184.890625 33.738281 C 183.417969 32.390625 181.625 31.714844 179.511719 31.714844 C 177.070312 31.714844 175.09375 32.433594 173.578125 33.867188 C 172.058594 35.300781 171.117188 37.320312 170.746094 39.929688 Z M 146.460938 33.738281 C 147.933594 34.910156 148.851562 36.539062 149.222656 38.625 L 158.328125 38.167969 C 158.007812 35.519531 157.066406 33.214844 155.5 31.257812 C 153.9375 29.304688 151.914062 27.804688 149.429688 26.761719 C 146.992188 25.675781 144.300781 25.132812 141.355469 25.132812 C 137.722656 25.132812 134.546875 25.871094 131.832031 27.347656 C 129.121094 28.828125 127.003906 30.933594 125.484375 33.671875 C 123.96875 36.410156 123.210938 39.582031 123.210938 43.1875 C 123.210938 46.792969 123.96875 49.964844 125.484375 52.703125 C 127.003906 55.441406 129.121094 57.546875 131.832031 59.023438 C 134.546875 60.503906 137.722656 61.242188 141.355469 61.242188 C 144.390625 61.242188 147.152344 60.699219 149.636719 59.613281 C 152.121094 58.480469 154.144531 56.894531 155.707031 54.855469 C 157.273438 52.8125 158.214844 50.421875 158.535156 47.683594 L 149.359375 47.292969 C 149.039062 49.597656 148.140625 51.378906 146.667969 52.636719 C 145.195312 53.855469 143.425781 54.460938 141.355469 54.460938 C 138.503906 54.460938 136.296875 53.484375 134.730469 51.53125 C 133.167969 49.574219 132.386719 46.792969 132.386719 43.1875 C 132.386719 39.582031 133.167969 36.800781 134.730469 34.84375 C 136.296875 32.890625 138.503906 31.910156 141.355469 31.910156 C 143.335938 31.910156 145.035156 32.519531 146.460938 33.738281 Z M 101.660156 25.914062 L 109.878906 25.914062 L 110.117188 32.5625 C 110.699219 30.679688 111.511719 29.21875 112.550781 28.179688 C 114.054688 26.667969 116.15625 25.914062 118.851562 25.914062 L 122.207031 25.914062 L 122.207031 33.03125 L 118.78125 33.03125 C 116.863281 33.03125 115.289062 33.289062 114.054688 33.804688 C 112.867188 34.324219 111.957031 35.144531 111.316406 36.265625 C 110.722656 37.386719 110.425781 38.808594 110.425781 40.535156 L 110.425781 60.460938 L 101.660156 60.460938 Z M 63.75 33.671875 C 62.234375 36.410156 61.472656 39.582031 61.472656 43.1875 C 61.472656 46.792969 62.234375 49.964844 63.75 52.703125 C 65.269531 55.441406 67.382812 57.546875 70.097656 59.023438 C 72.8125 60.503906 75.988281 61.242188 79.621094 61.242188 C 83.574219 61.242188 87.070312 60.261719 90.109375 58.308594 C 93.144531 56.351562 95.214844 53.746094 96.316406 50.488281 L 87.277344 49.835938 C 86.589844 51.3125 85.554688 52.484375 84.175781 53.355469 C 82.792969 54.222656 81.277344 54.65625 79.621094 54.65625 C 77 54.65625 74.90625 53.855469 73.339844 52.246094 C 71.824219 50.59375 70.972656 48.335938 70.789062 45.46875 L 96.800781 45.46875 L 96.800781 43.449219 C 96.753906 39.492188 95.972656 36.148438 94.457031 33.410156 C 92.9375 30.671875 90.890625 28.609375 88.316406 27.21875 C 85.738281 25.828125 82.839844 25.132812 79.621094 25.132812 C 75.988281 25.132812 72.8125 25.871094 70.097656 27.347656 C 67.382812 28.828125 65.269531 30.933594 63.75 33.671875 Z M 85.003906 33.738281 C 86.472656 35.039062 87.371094 37.105469 87.695312 39.929688 L 70.859375 39.929688 C 71.226562 37.320312 72.167969 35.300781 73.6875 33.867188 C 75.203125 32.433594 77.183594 31.714844 79.621094 31.714844 C 81.734375 31.714844 83.53125 32.390625 85.003906 33.738281 Z M 85.003906 33.738281 "/></g></g></svg>