<svg xmlns="http://www.w3.org/2000/svg" xmlns:xlink="http://www.w3.org/1999/xlink" width="50" zoomAndPan="magnify" viewBox="0 0 37.5 37.499999" height="50" preserveAspectRatio="xMidYMid meet" version="1.2"><defs><clipPath id="6c144d1a06"><path d="M 0 2.265625 L 37.007812 2.265625 L 37.007812 34.832031 L 0 34.832031 Z M 0 2.265625 "/></clipPath></defs><g id="e9481446ab"><g clip-rule="nonzero" clip-path="url(#6c144d1a06)"><path style=" stroke:none;fill-rule:evenodd;fill:#ffffff;fill-opacity:1;" d="M 37.335938 34.816406 L 18.667969 2.292969 L 0 34.816406 Z M 56.164062 33.335938 L 71.761719 3.769531 L 65.015625 3.769531 L 54.253906 25.242188 L 43.492188 3.769531 L 36.746094 3.769531 L 52.34375 33.335938 Z M 162.472656 3.769531 L 162.472656 33.335938 L 156.886719 33.335938 L 156.886719 3.769531 Z M 131.378906 22.300781 C 131.378906 19.996094 131.859375 17.96875 132.820312 16.21875 C 133.78125 14.472656 135.117188 13.125 136.835938 12.179688 C 138.550781 11.238281 140.558594 10.765625 142.855469 10.765625 C 144.894531 10.765625 146.726562 11.210938 148.355469 12.097656 C 149.984375 12.984375 151.28125 14.304688 152.238281 16.054688 C 153.199219 17.800781 153.695312 19.941406 153.722656 22.464844 L 153.722656 23.757812 L 137.269531 23.757812 C 137.386719 25.589844 137.925781 27.03125 138.886719 28.085938 C 139.875 29.113281 141.199219 29.628906 142.855469 29.628906 C 143.902344 29.628906 144.863281 29.351562 145.738281 28.796875 C 146.609375 28.242188 147.265625 27.492188 147.699219 26.546875 L 153.417969 26.964844 C 152.71875 29.046875 151.410156 30.710938 149.492188 31.960938 C 147.570312 33.210938 145.359375 33.835938 142.855469 33.835938 C 140.558594 33.835938 138.550781 33.363281 136.835938 32.417969 C 135.117188 31.472656 133.78125 30.128906 132.820312 28.378906 C 131.859375 26.628906 131.378906 24.605469 131.378906 22.300781 Z M 147.964844 20.21875 C 147.757812 18.414062 147.191406 17.09375 146.261719 16.261719 C 145.328125 15.402344 144.195312 14.972656 142.855469 14.972656 C 141.316406 14.972656 140.0625 15.429688 139.105469 16.34375 C 138.144531 17.261719 137.546875 18.550781 137.316406 20.21875 Z M 121.953125 16.261719 C 122.886719 17.011719 123.464844 18.050781 123.699219 19.386719 L 129.460938 19.09375 C 129.257812 17.398438 128.660156 15.929688 127.671875 14.679688 C 126.679688 13.429688 125.402344 12.472656 123.828125 11.804688 C 122.289062 11.113281 120.585938 10.765625 118.722656 10.765625 C 116.425781 10.765625 114.417969 11.238281 112.703125 12.179688 C 110.984375 13.125 109.648438 14.472656 108.6875 16.21875 C 107.726562 17.96875 107.246094 19.996094 107.246094 22.300781 C 107.246094 24.605469 107.726562 26.628906 108.6875 28.378906 C 109.648438 30.128906 110.984375 31.472656 112.703125 32.417969 C 114.417969 33.363281 116.425781 33.835938 118.722656 33.835938 C 120.644531 33.835938 122.390625 33.488281 123.960938 32.792969 C 125.53125 32.070312 126.8125 31.058594 127.800781 29.753906 C 128.792969 28.449219 129.386719 26.921875 129.589844 25.171875 L 123.785156 24.921875 C 123.582031 26.394531 123.015625 27.53125 122.085938 28.335938 C 121.152344 29.113281 120.03125 29.503906 118.722656 29.503906 C 116.921875 29.503906 115.523438 28.878906 114.535156 27.628906 C 113.546875 26.378906 113.050781 24.605469 113.050781 22.300781 C 113.050781 19.996094 113.546875 18.21875 114.535156 16.96875 C 115.523438 15.71875 116.921875 15.097656 118.722656 15.097656 C 119.976562 15.097656 121.050781 15.484375 121.953125 16.261719 Z M 93.617188 11.265625 L 98.816406 11.265625 L 98.964844 15.511719 C 99.335938 14.308594 99.847656 13.375 100.503906 12.710938 C 101.457031 11.746094 102.785156 11.265625 104.488281 11.265625 L 106.613281 11.265625 L 106.613281 15.808594 L 104.445312 15.808594 C 103.234375 15.808594 102.238281 15.976562 101.457031 16.304688 C 100.707031 16.636719 100.128906 17.160156 99.726562 17.875 C 99.347656 18.59375 99.160156 19.503906 99.160156 20.605469 L 99.160156 33.335938 L 93.617188 33.335938 Z M 69.640625 16.21875 C 68.679688 17.96875 68.199219 19.996094 68.199219 22.300781 C 68.199219 24.605469 68.679688 26.628906 69.640625 28.378906 C 70.597656 30.128906 71.9375 31.472656 73.652344 32.417969 C 75.371094 33.363281 77.378906 33.835938 79.675781 33.835938 C 82.179688 33.835938 84.390625 33.210938 86.308594 31.960938 C 88.230469 30.710938 89.539062 29.046875 90.238281 26.964844 L 84.519531 26.546875 C 84.085938 27.492188 83.429688 28.242188 82.558594 28.796875 C 81.683594 29.351562 80.722656 29.628906 79.675781 29.628906 C 78.019531 29.628906 76.695312 29.113281 75.707031 28.085938 C 74.746094 27.03125 74.207031 25.589844 74.089844 23.757812 L 90.542969 23.757812 L 90.542969 22.464844 C 90.515625 19.941406 90.019531 17.800781 89.058594 16.054688 C 88.097656 14.304688 86.804688 12.984375 85.175781 12.097656 C 83.546875 11.210938 81.714844 10.765625 79.675781 10.765625 C 77.378906 10.765625 75.371094 11.238281 73.652344 12.179688 C 71.9375 13.125 70.597656 14.472656 69.640625 16.21875 Z M 83.082031 16.261719 C 84.011719 17.09375 84.578125 18.414062 84.78125 20.21875 L 74.132812 20.21875 C 74.367188 18.550781 74.964844 17.261719 75.921875 16.34375 C 76.882812 15.429688 78.132812 14.972656 79.675781 14.972656 C 81.015625 14.972656 82.148438 15.402344 83.082031 16.261719 Z M 83.082031 16.261719 "/></g></g></svg>